<?xml version="1.0" encoding="UTF-8"?>
<svg version="1.1" viewBox="0 0 2048 1638" width="600" height="480" xmlns="http://www.w3.org/2000/svg">
<path transform="translate(0)" d="m0 0h2048v1638h-2048z" fill="transparent"/>
<path transform="translate(946,372)" d="m0 0 17 4 99 30 39 12 6 3-1 2-17 6-50 19-42 15-16 7-8 6-6 8-5 11-3 12-1 24-1 185 30-5 19-2h18l14 3 16 8 8 7 8 9 8 16 9 27 1 1h11l20-2h10l1 35 47 2 60 2 171 10 21 1 12-4 10-6 3-3 3-12 4-28 1-3-16-2-13-2-1-1-2-30-3-37-5-39-4-21-3-11 2-1 7 6 13 17 14 19 11 17 13 22 14 26 12 26 11 28 10 31 8 32 6 30 1 7 8 1 119 1-1 8-11 42-5 17-2 2h-1240l-4-1-6-21-11-42v-5h127l1-11 7-34 9-34 11-32 14-33 8-17 12-22 12-20 14-21 14-19 13-16 13-15 7-7 7-8 9-9 5-2v17l-4 82-4 95v5l16 2 31 3 1 2v84l5-1h11l-5-24v-22l3-15 5-13 7-11 7-7 8-4h54l8 4 9 9 8 16 4 13 3 14h4v-25l1-38 34-3 51-4 17-1h12v71h15l-1-10v-10l3-21 5-15 8-15 7-9 13-9 11-3h35l12 3-4-5-13-9-13-6-9-2h-19l-16 3-16 8-9 9-8 2-119 14-111 14-35 4h-7l2-2 15-4h3l1-22 7-94 6-80 4-64 2-20-10 4-2-1 14-7h2v34l-2 64-3 117-1 62h7l29-7h2v-15l5-73 4-66 2-39 2-27 3-62 1-10-9 4-3-1 15-7 2 1-2 115v60l-1 10-2 106 46-11h2v-25l3-57 6-135 3-89-10 4-3-1 15-7h3v210l-1 95 26-6 24-6 4-84 2-45 1-14-2-1 2-1 5-144 1-33-27 12-3-1 21-11 11-5h3v256l-1 59 7-58 6-56 15-130 9-79z" fill="#8AD65E"/>
<path transform="translate(465,1199)" d="m0 0h1118l-1 7-13 48-4 12h-1081l-2-1-11-39-6-23z" fill="#8AD65E"/>
<path transform="translate(1138,437)" d="m0 0h16l38 7 43 10 40 11 36 12 25 9 27 11 9 6 5 10 9 29 11 41 11 42v3h-21l-38-4-30-4-31-5-24-4-6-2-9-2-29-8-35-13-20-9-16-8-8-5-5-48-7-68 1-7z" fill="#8AD65E"/>
<path transform="translate(665,591)" d="m0 0h2v17l-4 82-4 95v5l16 2 31 3 1 2v84l5-1h12l3 9-5 1-207 1-3-1v-10l7-34 9-34 11-32 14-33 8-17 12-22 12-20 14-21 14-19 13-16 13-15 7-7 7-8 9-9z" fill="#66A533"/>
<path transform="translate(1416,628)" d="m0 0 5 3 10 12 12 16 12 17 13 21 12 21 12 23 13 30 9 24 9 29 7 28 6 30v8h-242v-2l6-5 9-13 8-16 4-17 2-13 1-1h17l82 5 10-1 12-5 8-6 3-8 5-33 1-3-16-2-13-2-1-1-2-30-3-37-5-39-4-21-3-11z" fill="#66A533"/>
<path transform="translate(1100,454)" d="m0 0h7l3 19 5 46 4 46 2 34 2 19-14-1-12-2-28-4-8-2-36-6-51-10-2-5 3-46 5-32 4-16 8-5 30-11 43-14z" fill="#8AD65E"/>
<path transform="translate(1263,1036)" d="m0 0h20l3 8v3l6-1 2 1 4 20 1 1 4-10 6-20 2-2h19l3 7v3l7 1 5 12 1 10 3-3 8-29 1-1h20l-2 10h7l4 1-2 11-4 11-2 9-12 44-3 5-4 1h-12l-4-1-3-8-5-2-5-10-5-13-2 5-4 16-5 12-5 1h-12l-4-1v-8l-8-1-3-5-19-70z" fill="#8AD65E"/>
<path transform="translate(1501,1035)" d="m0 0h23l16 3 14 10 6 7 4 4 5 4 4 8 2 7v18l-5 12-10 11-12 6-16 3h-27l-6-1-1-8-9-1-1-49v-27l2-6z" fill="#8AD65E"/>
<path transform="translate(1196,1035)" d="m0 0h12l10 3 10 6 8 7 3 4v2l4 2 6 9 4 10v18l-4 11-7 9-8 7-12 5-5 1h-10l-13-4-9-6-9-9-2-1v-2l-3-1-7-10-3-7-1-5v-14l3-10 6-10 9-8 10-5z" fill="#8AD65F"/>
<path transform="translate(665,591)" d="m0 0h2v17l-4 82-4 95h-1v-30l2-49-4 7-4 2-1 2-4-2-9-2-4-2-8 1-8-2-4 2-11 2h-7l-4 3-5-1-5-5v-3l-3-2-3 1-3 3 2-5 8-14 16-24 14-19 13-16 13-15 7-7 7-8 9-9z" fill="#8BD75F"/>
<path transform="translate(759,1035)" d="m0 0h14l13 7 9 9 7 8 3 4 1 4v11l-3 9-7 8h-2l2 6 13 24v3h-16l-5-2-4-6-8-7-8-11-2-2-1 1-1 19-1 7-5 1h-12l-1-1v-8l-11-1-1-82z" fill="#8AD65E"/>
<path transform="translate(1074,1036)" d="m0 0h40l8 3 10 9 7 8 5 7 2 6v11l-6 11-6 7 9 16 6 12v2h-14l-7-1-3-5v-2l-5-2-7-8-4-6-1-3h-3l-1 7-1 19h-19v-8l-9-1-1-1z" fill="#8AD65E"/>
<path transform="translate(1749,1034)" d="m0 0 1 4-5 8h14l-1 4-18 22-7 9h-2l4 8 14 18 12 16 2 2v3h-12l-9-1-5-5-13-12-4-5v-2l-5-2-3 10-2 16-15 1-3-1v-8l-10-1-1-1v-42l1-39h17l3 1v10l6-1 3 2 1 4 8-9 5-7 21-1z" fill="#8AD65F"/>
<path transform="translate(910,1036)" d="m0 0h49l2 1v9l8 1 1 3-1 14-11 1v12h9v17l-1 1-27 1-2 3 23-1 2 1v10l8 1v16l-12 1h-38l-1-1v-7l-9-1-1-1v-80z" fill="#8AD75E"/>
<path transform="translate(372,1035)" d="m0 0 3 3 3 6v2l6 1 6 12 7 21 9 25 7 20v2h-20l-2-8-7-2-4-3h-20l-6 13-8 1h-11l-1-2 3-7h-12l-1-4 7-20 7-19 12-32 3-7 2-1z" fill="#8AD65E"/>
<path transform="translate(1418,1035)" d="m0 0 16 1 3 1 2 9 7 2 4 9 6 17 3 8 15 42v3h-19l-3-6v-2l-7-2-5-3h-19l-6 13-7 1h-12l1-6 2-3-14-1 2-9 14-38 11-30 2-5z" fill="#8AD65E"/>
<path transform="translate(249,1036)" d="m0 0h51l1 2-1 8 10 1v17l-14 1 1 1v11h9v18l-29 1 1 2h21l1 1v11h10v16l-1 1h-50v-8l-9-1-1-1z" fill="#8AD75E"/>
<path transform="translate(1149,666)" d="m0 0 12 1 26 5 22 6 9 4v62h-65l-1-5-3-60z" fill="#8AD75E"/>
<path transform="translate(448,1033)" d="m0 0 11 1 15 8 14 15 3 3v2l-14 9-4-1v-2l-6-3h-11l-1 2 9 2 10 5 12 13 7 11v11l-4 8-4 5-9 5-7 2h-9l-9-2-10-5-18-18-1-6 14-8 4 1 3 5 5 2h12l3-3-6-1-12-6-10-9-5-4-5-10-1-8 3-9 4-6 9-6z" fill="#8AD65E"/>
<path transform="translate(991,1036)" d="m0 0h36l8 3 10 9 7 8 5 7 2 12-2 9-4 6-5 5-8 5-4 1h-16l-1 26-14 1-4-1v-8l-10-1-1-1v-80z" fill="#8AD65E"/>
<path transform="translate(825,1036)" d="m0 0h55l1 1v10l9-1 1 3-1 11-8 14-13 20-2 4 13 1 1 4v6l9 1v17h-54v-8l-10-1-1-1v-13l5-10 10-15 8-14-13-1v-8l-10-1-1-5v-10z" fill="#8AD65E"/>
<path transform="translate(1615,1034)" d="m0 0h12l6 2 10 6 8 7 6 8 3 5-3 3-8 5-4 1-8-6h-12l19 10 15 16 3 6 1 9-3 9-7 8-6 4-8 2h-11l-10-3-8-5-5-5-8-7-6-8 1-4 13-6 5 1 5 5 3 1h12l2-3-10-3-8-4-4-5-10-8-3-5-3-7v-8l4-10 7-7z" fill="#8AD65F"/>
<path transform="translate(651,1035)" d="m0 0h27l16 3 10 9 4 5 5 4 5 9 2 11-4 10-6 8-10 6-3 1h-17l-1 26h-17l-1-1v-7l-9-1-1-1-1-40v-41z" fill="#8AD65E"/>
<path transform="translate(834,860)" d="m0 0h138l8 16 7 12v2h-162v-4l8-25z" fill="#66A533"/>
<path transform="translate(513,1035)" d="m0 0 10 1 4 9 7 8 4 9h2l13-24 3-3 21 1-1 5-3 4 12 1-1 4-8 16-13 24-5 10-1 27h-19l1-8-11-1-1-27-8-16-13-25-7-12v-2z" fill="#8AD65E"/>
<path transform="translate(1164,460)" d="m0 0 20 1 30 5 26 6 25 7 29 10 26 11 19 9 6 4-2 1-19-5-30-8-42-10-60-12-23-4-9-1 3 63v20l-2-1-5-21-9-49-1-6v-10l3-5 4-3z" fill="#FEFEFE"/>
<path transform="translate(1227,707)" d="m0 0 17 2 65 8 73 11 28 5 5 2v13l-16-1-42-6-18-2-31-4-55-6-25-3-2-3v-13z" fill="#85E44B"/>
<path transform="translate(1227,684)" d="m0 0 12 1 63 9 78 13 33 6 2 2v13l-13-1-32-5-34-5-19-3-18-2-15-2-21-3-17-2-18-3-1-1z" fill="#85E54B"/>
<path transform="translate(1093,863)" d="m0 0h13l65 3 21 1 7 2 8 10 6 7v2h2v2h-136l-2-2 6-8 7-14z" fill="#66A533"/>
<path transform="translate(1227,731)" d="m0 0 15 1 61 7 48 6 63 9 1 1v11l-13-1-23-3-37-4-49-5-64-6-3-2v-13z" fill="#84E44A"/>
<path transform="translate(1779,1035)" d="m0 0 19 1 1 1v10l8-1 1 1v80l-17 1-2-1v-8l-10-1z" fill="#8AD65E"/>
<path transform="translate(1227,666)" d="m0 0 23 3 73 11 64 11 25 5 1 1 1 11-9-1-35-6-31-5-17-3-38-6-23-3-31-5-3-1z" fill="#83E24A"/>
<path transform="translate(1416,628)" d="m0 0 5 3 10 12 12 16 10 14-1 2-1-1-1 3 2 5 4 9 2 6v16l-5-1-3 2-5-1v-2h-2l-2-5h-2l-2-2h-4-3l3 42v21h-1l-2-30-3-37-5-39-4-21-3-11z" fill="#8AD65E"/>
<path transform="translate(1227,684)" d="m0 0 12 1 63 9 78 13 33 6 2 2v13l-13-1-32-5-34-5-19-3-18-2-15-2-21-3-17-2-18-3-1-1zm28 6-2 5v4l10 6h10l11-1v2l5 2h9l3-1h5l10 5h6l2-1h6l10 4h11l14 4 16 2 17 3 12 3h3l1-3v-8l-3-2-32-5-28-5-13-2-31-5-14-2-13-1-6-1-6-2z" fill="#8BD75F"/>
<path transform="translate(837,438)" d="m0 0h3v152l-1 28-1-4-4 2-3-1-1-3v-36l3-72 2-62-10 4-3-1z" fill="#89D65C"/>
<path transform="translate(1204,759)" d="m0 0h27l18 1 3 1-1 9-2 15-1 1h-18l-27-1-1-1 1-24z" fill="#8AD75E"/>
<path transform="translate(1015,777)" d="m0 0h5l-2 4-5 6-4 11-2 11-1 12v10l2 15 4 11 2 5h2l4 5v2h-6l-9-5-6-7-6-12-3-12v-19l4-16 6-11 9-8z" fill="#FEFEFE"/>
<path transform="translate(1562,1058)" d="m0 0 6 4 5 9 2 7v18l-5 12-10 11-12 6-16 3h-27l-6-1v-8l31-1 11-3 8-4 8-7 7-12 2-9v-9l-4-13z" fill="#5AADEA"/>
<path transform="translate(1227,666)" d="m0 0 23 3 73 11 64 11 10 2-3 2-15-2-4-1v-2l-7 1-5-1v-1l-8-1-17-2-3-1-15-2v-1l-12-1-14-2-1-1-17-2v-2l-8 1-40-6 1 7 10 1 10-2 4 2 3 2 2 1 12-1 7 2 5 2h19l3 1v2h15l8 4 12-1 9 4h14l6 3 14 1 3 3 12 1v2h5l5 2 4-1 1-5-2-1 3-1 1 11-9-1-35-6-31-5-17-3-38-6-23-3-31-5-3-1z" fill="#8BD75F"/>
<path transform="translate(1227,707)" d="m0 0 17 2 65 8 73 11 28 5 5 2v13l-16-1-42-6-18-2-31-4-55-6-25-3-2-3v-13zm12 4-2 1v2l-6 1v2h-2l-1 5 4 2 6-2 7 3h10l13 2 5 2h8l4-1h9l3 2 6 2h9l8-1 13 5 14-1 13 4 12 1 13 3 18 2 6 2h4l1-2v-8l-2-2-22-4-34-5-12-2-11-1-10-2-41-5-13-2-12-1-11-2z" fill="#8BD75F"/>
<path transform="translate(1046,1052)" d="m0 0 4 2 6 7 2 5 1 9-2 9-4 6-5 5-8 5-4 1h-16l-1 26-14 1-4-1v-7l1-1 7-1 1-4 1-19 1-2 16-2 10-4 7-7 3-6 1-9z" fill="#5AADEA"/>
<path transform="translate(571,1046)" d="m0 0h14l-1 4-8 16-13 24-5 10-1 27h-19l1-7 9-1 1-25 3-10 12-24z" fill="#5BAEE9"/>
<path transform="translate(1381,1046)" d="m0 0 6 1-2 11-4 11-2 9-12 44-3 5-4 1h-12l-4-1-2-8h12l3-3 11-41 5-21 3-7z" fill="#5BAEE9"/>
<path transform="translate(708,1053)" d="m0 0 4 2 6 10 2 11-4 10-6 8-10 6-3 1h-17l-1 26h-17l-1-1v-7h7l2-1 2-24 1-1 16-2 12-6 7-9 1-3v-15z" fill="#5AADEA"/>
<path transform="translate(1239,1057)" d="m0 0 4 2 6 9 4 10v18l-4 11-7 9-8 7-12 5-5 1h-10l-13-4-9-6-5-6 5 2 9 4 5 1h11l13-5 9-7 7-9 4-9 1-4v-14l-4-11z" fill="#5AADEA"/>
<path transform="translate(1207,1065)" d="m0 0h10l5 3 2 3v12l-5 9-8 6-3 1h-14l-4-4-1-4v-8l3-7 5-6z" fill="#FEFEFE"/>
<path transform="translate(1519,1063)" d="m0 0 21 2 5 3 1 3v11l-5 10-5 4-8 3-9 1-1-2v-34z" fill="#FEFEFE"/>
<path transform="translate(1227,731)" d="m0 0 15 1 61 7 48 6 63 9 1 1v11l-13-1-23-3-37-4-49-5-64-6-3-2v-13zm1 2v11l10 2 26 2 20 2 20 1 2 1 57 6 44 6h6l1-2v-7l-24-3-38-5-37-5-33-4-49-5z" fill="#8BD75F"/>
<path transform="translate(751,806)" d="m0 0h3l-2 6-4 9-3 20v12l3 17 4 8 3 5-5 1-7-5-7-14-3-12v-16l4-15 6-9z" fill="#FEFEFE"/>
<path transform="translate(1803,1046)" d="m0 0 5 1v80l-17 1-2-1v-8h11l-1-72z" fill="#4BA0FB"/>
<path transform="translate(885,1046)" d="m0 0h5l1 3-1 11-8 14-13 20-3 5h-13l1-5 6-9 8-14 10-16 3-8z" fill="#5AADEA"/>
<path transform="translate(793,1051)" d="m0 0h2l7 8 3 4 1 4v11l-3 9-7 8h-2l2 6 13 24v3h-16l-5-2-4-7h17l-15-30 1-4 5-5 3-7v-13z" fill="#5AADEA"/>
<path transform="translate(1133,1051)" d="m0 0 7 6 5 9 1 3v11l-6 11-6 7 9 16 6 12v2h-14l-7-1-3-5 1-3h14l-1-5-10-18-3-5v-6l5-4 4-8 1-7-2-10z" fill="#5BAEEA"/>
<path transform="translate(1650,1084)" d="m0 0 4 2 6 7 3 9-1 9-4 7-9 8-10 3h-11l-10-3-8-5-5-5h3l7 3 6 1h11l10-4 7-6 3-6 1-10z" fill="#5AADEA"/>
<path transform="translate(481,1083)" d="m0 0 5 4 7 11v11l-4 8-4 5-9 5-7 2h-9l-9-2-10-5-6-7 5 2 11 3h12l12-6 6-7 3-7-1-9-2-5z" fill="#5AADEA"/>
<path transform="translate(1268,690)" d="m0 0 13 1 40 6 64 11 28 5 2 2v13l-13-1-32-5-34-5-19-3v-2l7-2h6l10 4h11l14 4 16 2 17 3 15 4v-11l-10-2-65-11-31-5-14-2-13-1-6-1-6-2z" fill="#8BD75F"/>
<path transform="translate(1319,1076)" d="m0 0 3 1 3 11v7l-5 20-5 12-5 1h-12l-4-1v-8h8l4-1 4-11 7-23z" fill="#5AADEA"/>
<path transform="translate(1440,1047)" d="m0 0 6 1 4 9 6 17 3 8 15 42v3h-19l-3-6v-2l14 1-7-21-10-27-7-19-2-3z" fill="#4EA3F7"/>
<path transform="translate(378,1046)" d="m0 0 6 1 6 12 7 21 9 25 7 20v2h-20l-2-8 14 1-7-21-16-43-2-5z" fill="#4EA3F6"/>
<path transform="translate(1756,1046)" d="m0 0h3l-1 4-18 22-7 9h-2l-1 3-7-9 1-4 9-11 9-12 2-1z" fill="#5AADEA"/>
<path transform="translate(1201,1056)" d="m0 0 11 2 8 7-3 1h-10l-10 5-6 8-1 4v12h-2l-6-9-1-3v-11l5-9 5-4z" fill="#5AADEA"/>
<path transform="translate(904,404)" d="m0 0h3v70l-1 48h-1v-67h-2v10l-2 38-1 5h-1l1-40 2-56v-3l-27 12-3-1 21-11z" fill="#8BD75F"/>
<path transform="translate(881,1110)" d="m0 0h9v17h-54v-8h44z" fill="#59ACEB"/>
<path transform="translate(301,1110)" d="m0 0h9v16l-1 1h-50v-8h42z" fill="#59ACEC"/>
<path transform="translate(352,1105)" d="m0 0h23l5 5 1 3-2 1h-19l-6 13-8 1h-11l-1-2 3-6 7-3 5-9z" fill="#5AADEA"/>
<path transform="translate(1414,1105)" d="m0 0h21l5 3 3 6h-22l-6 13-7 1h-12l1-6 4-3 5-3 5-9z" fill="#5AADEA"/>
<path transform="translate(962,1110)" d="m0 0h8v16l-12 1h-38l-1-1v-7h42z" fill="#4EA3F7"/>
<path transform="translate(1514,1055)" d="m0 0 15 2 10 4 3 3v2l-23-2v36l-7-1-2-7 1-35z" fill="#4EA3F7"/>
<path transform="translate(300,1046)" d="m0 0 10 1v17l-16 1-4 1-20 1-1-2v-6l2-2 8-1h22z" fill="#6CB6EC"/>
<path transform="translate(1431,779)" d="m0 0 13 1 7 2 1 3-2 16-1 2-18-1-1-1z" fill="#8BD75F"/>
<path transform="translate(958,1077)" d="m0 0h9v17l-1 1-27 1-2 3h-6l-1-2v-8l3-3 26-1z" fill="#4EA3F6"/>
<path transform="translate(961,1047)" d="m0 0h8l1 3-1 14-15 1-3 1-17 1-3-2v-8l1-1 28-1z" fill="#54A6F7"/>
<path transform="translate(297,1077)" d="m0 0h9v18l-29 1-1 3-6-1-1-7 1-3 2-1 14-1h11z" fill="#4EA3F7"/>
<path transform="translate(1706,1092)" d="m0 0 5 1 5 8-3 5-3 21-15 1-3-1v-8h10l1-17z" fill="#5AADEA"/>
<path transform="translate(757,1092)" d="m0 0 5 1 3 3-1 24-1 7-5 1h-12l-1-1v-8l9-1 1-18 1-7z" fill="#4CA1F8"/>
<path transform="translate(1097,1092)" d="m0 0 5 1 3 4-2 30h-19v-8h11v-24z" fill="#5BAEEA"/>
<path transform="translate(480,1051)" d="m0 0 4 2 7 7v2l-14 9-4-1v-2l-6-3h-11-3l-6-3-1-4 2-2 8 1 7 4 7-1 9-5z" fill="#5AADE9"/>
<path transform="translate(837,438)" d="m0 0h3v76h-1l-1-46-1 4 1 3v31l-4-2v-35l1-27-10 4-3-1z" fill="#8AD75E"/>
<path transform="translate(1650,1051)" d="m0 0 3 1 6 7 1 4-11 7-4 1-8-6-17-1-4-3 1-5 2-1 11 4 4 2 7-1 6-5h3z" fill="#5BAEE9"/>
<path transform="translate(758,1056)" d="m0 0 14 1 3 1 2 6-1 6-6 3h-10l-4-1v-14z" fill="#55A7F3"/>
<path transform="translate(481,1083)" d="m0 0 5 4 7 11v11l-4 8-4 5-9 5-7 2h-9l-9-2-10-5-6-7 5 2 13 5 10 2v2l12-2 8-4 4-5 3-7v-7l-4-1v-5h-2l-3-9z" fill="#4EA2F7"/>
<path transform="translate(1097,1056)" d="m0 0h9l9 3 1 3v7l-4 3h-16l-1-1v-8z" fill="#4EA2F7"/>
<path transform="translate(1803,1046)" d="m0 0 5 1v80h-1l-1-52-6 1-1-29z" fill="#52A6F2"/>
<path transform="translate(1014,1055)" d="m0 0 10 2 4 3 1 3v7l-3 2-5 1h-8l-1-1v-13z" fill="#50A4F6"/>
<path transform="translate(675,1055)" d="m0 0 7 1 6 4 2 4-1 5-5 3h-11l-1-1v-9l2-6z" fill="#50A4F5"/>
<path transform="translate(1011,1095)" d="m0 0h1l1 10 2 2 2-1 1 11h1v10l-14 1-4-1v-7l1-1 7-1 1-4z" fill="#5BAEEA"/>
<path transform="translate(836,1119)" d="m0 0h36l10 1v1l-18 2-2 1-1 3h-25z" fill="#4CA1F9"/>
<path transform="translate(259,1120)" d="m0 0h42v1l-15 4-2 2h-25z" fill="#4BA0FA"/>
<path transform="translate(300,1046)" d="m0 0 10 1v17l-20-1 3-3h2v-3l6-1z" fill="#5BAEE8"/>
<path transform="translate(903,455)" d="m0 0h2v69h-1l-1-13-1-2h-2l1-30z" fill="#85E54B"/>
<path transform="translate(958,1077)" d="m0 0h9v17l-2-3h-3l-20-1v-2h-6l2-2 21-1z" fill="#5BAEEA"/>
<path transform="translate(1753,1114)" d="m0 0 5 5 5 6v3h-12l-9-1-5-5v-3h15l2-1z" fill="#5AADE8"/>
<path transform="translate(1334,1046)" d="m0 0 7 2 4 11 2 10v8l-4 2-6-21-3-9z" fill="#58ABEC"/>
<path transform="translate(1288,1046)" d="m0 0 6 1 4 20v10l-3 3-2-7-6-23z" fill="#50A4F5"/>
<path transform="translate(801,1117)" d="m0 0 4 3 3 3 1 5h-16l-5-2-4-7h17z" fill="#59ACEB"/>
<path transform="translate(671,1102)" d="m0 0h1v9l3 1 1 4 3 4v7h-17l-1-1v-7h7l2-1z" fill="#5AADEA"/>
<path transform="translate(1097,1092)" d="m0 0 5 1 3 4-2 16-1 3h-2l-1 2v-2l-3-1v-22z" fill="#4CA1F9"/>
<path transform="translate(1141,1117)" d="m0 0 4 3 3 4 1 4h-14l-7-1-3-5 1-3h14z" fill="#5BAEEA"/>
<path transform="translate(1233,687)" d="m0 0h9l4 2v5l7-1v2h-9-1l4 1v2l-3 1-13 1-2-1v-5l3-3z" fill="#85E44B"/>
<path transform="translate(297,1077)" d="m0 0h9v16l-2-2-5 1-6-3v-2l-2 1h-19v-1l14-1h11z" fill="#59ACEB"/>
<path transform="translate(953,1068)" d="m0 0h3l1 5v10l-1 1h-15l2-2h4l1-6-1-3-5-1v-2l-3-1h8 4z" fill="#85E54B"/>
<path transform="translate(1414,1105)" d="m0 0h21l5 3 3 6-22-2-1-5-8 1v-2z" fill="#4EA2F7"/>
<path transform="translate(672,1094)" d="m0 0h7l2 6h-2v20l-1 6h-1l-2-10-1-4-2-1z" fill="#4BA0FA"/>
<path transform="translate(755,1100)" d="m0 0h1v19l3 1v2h2l-1 4 3-1v2l-5 1h-12l-1-1v-8l9-1z" fill="#5AADEA"/>
<path transform="translate(1046,1052)" d="m0 0 4 2 6 7 2 5 1 9-2 9-3-1-1-7-1-5-3-11z" fill="#4DA2F8"/>
<path transform="translate(1800,1094)" d="m0 0h1v23h2l1 7-2 3-7 1-6-1v-8h11z" fill="#59ACEB"/>
<path transform="translate(1180,1113)" d="m0 0 5 2 10 5 15 5 1 1 7 1-1 2h-10l-13-4-9-6z" fill="#4FA3F6"/>
<path transform="translate(1239,1057)" d="m0 0 4 2 6 9 3 6v12l-1-2-5-2-1-9-5-12z" fill="#4DA2F7"/>
<path transform="translate(1605,1115)" d="m0 0 20 8 9 3 6 1-1 2h-11l-10-3-8-5-5-5z" fill="#4EA3F7"/>
<path transform="translate(404,1113)" d="m0 0 3 4 1 9-2 1h-13l-2-8 14 1z" fill="#5BAEEA"/>
<path transform="translate(836,1056)" d="m0 0h15l1 5-3 3h-14z" fill="#4EA3F7"/>
<path transform="translate(360,1106)" d="m0 0h17l4 6-2 2-18-2z" fill="#4BA0FA"/>
<path transform="translate(777,477)" d="m0 0h1v54h-1v-16l-3 1v-12z" fill="#85E54B"/>
<path transform="translate(1012,1093)" d="m0 0h5l2 2v22l-2 2-1-10-4-4z" fill="#4BA0F9"/>
<path transform="translate(723,518)" d="m0 0h1v35l-2 1-2-1-1 3 1-19 1-11z" fill="#85E54B"/>
<path transform="translate(962,1110)" d="m0 0h8v16h-6l-1-6-1-1z" fill="#5BAEEA"/>
<path transform="translate(1562,1058)" d="m0 0 6 4 5 9v7l-5 3-5-18z" fill="#4EA3F6"/>
<path transform="translate(1650,1084)" d="m0 0 4 2 6 7 3 9-1 9-2 4h-2l1-5v-9l-2-2v-4l-4-1z" fill="#4FA3F6"/>
<path transform="translate(1618,1055)" d="m0 0 10 3 7 4v2h-15l-4-3 1-5z" fill="#52A6F4"/>
<path transform="translate(765,1063)" d="m0 0 12 1-1 6-6 3h-6l-1-5 1-4z" fill="#FEFEFE"/>
<path transform="translate(1706,1046)" d="m0 0 5 2v6l-6 10-3-1v-16z" fill="#55A6F7"/>
<path transform="translate(1799,1047)" d="m0 0 2 1 1 10h2l2 8v9l-6 1z" fill="#5BAEEA"/>
<path transform="translate(448,1056)" d="m0 0 8 1 9 5v1l-9 2h-3l-6-3-1-4z" fill="#4FA3F6"/>
<path transform="translate(1319,1076)" d="m0 0 3 1 3 11v7l-3 8h-1v-7l1-7h-3l-1-2v-9z" fill="#4FA3F6"/>
<path transform="translate(1424,1070)" d="m0 0h2l4 9v5l-1 1h-7l-1-1 1-8z" fill="#50A4F5"/>
<path transform="translate(362,1070)" d="m0 0h3l4 11v3l-2 1h-6l-2-5z" fill="#52A6F3"/>
<path transform="translate(1104,1064)" d="m0 0h12v5l-4 3h-8l-1-1v-6z" fill="#FEFEFE"/>
<path transform="translate(836,465)" d="m0 0 3 1v48l-2 2-2-4v-8l2 1v-30l-1-3z" fill="#85E54B"/>
<path transform="translate(1334,1046)" d="m0 0 7 2 2 6v5l-2 6-2-1-5-15z" fill="#4EA2F7"/>
<path transform="translate(481,1083)" d="m0 0 5 4 6 9v12h-1l-1-7-4-1v-5h-2l-3-9z" fill="#4EA2F7"/>
<path transform="translate(439,1081)" d="m0 0 7 3 16 8 2 4-14-5-10-7z" fill="#51A5F4"/>
<path transform="translate(1611,1083)" d="m0 0 9 3 9 4 4 4-3 1-15-6-4-5z" fill="#50A4F5"/>
<path transform="translate(1021,1064)" d="m0 0h8v6l-3 2-6 1-1-4z" fill="#FEFEFE"/>
<path transform="translate(791,1095)" d="m0 0h2l2 5 10 18-1 3-7-10-6-12z" fill="#4FA3F6"/>
<path transform="translate(793,1051)" d="m0 0h2l7 8 3 4v13h-1l-2-12-1-3-6-1z" fill="#4FA4F6"/>
<path transform="translate(684,1064)" d="m0 0h6l-1 5-5 3h-6l2-5z" fill="#FEFEFE"/>
<path transform="translate(1131,1096)" d="m0 0 4 4 8 14 2 7-5-5-9-16z" fill="#50A4F5"/>
<path transform="translate(1031,1081)" d="m0 0h3v7l-9 3-4-1 4-2h2l-1-3 2-3z" fill="#85E54B"/>
<path transform="translate(347,1053)" d="m0 0h11l23 2-1 2-23-1-9-1z" fill="#66A533"/>
<path transform="translate(1511,1077)" d="m0 0 2 4 2 10v5h-2l1 3-3-1-1-11z" fill="#5AADEA"/>
<path transform="translate(295,1057)" d="m0 0h4v2h3v2l3 1-1 1h-14l3-3h2z" fill="#4BA0FB"/>
<path transform="translate(1133,1051)" d="m0 0 7 6 2 3v3l-5 1-4-11z" fill="#4FA3F6"/>
<path transform="translate(1466,1116)" d="m0 0 2 4 2 3-3 2h-8l1-3-1-2h7z" fill="#5BAEEA"/>
<path transform="translate(1245,762)" d="m0 0h6l-1 5-2 7h-1l-2-6-1-5z" fill="#85E54B"/>
<path transform="translate(391,1119)" d="m0 0h7v2h-2v4l8 1v1h-11z" fill="#50A4F5"/>
<path transform="translate(678,1060)" d="m0 0 6 2-1 4-3 1-1-1-3 3v-7z" fill="#5CAEE6"/>
<path transform="translate(1738,1120)" d="m0 0h7l-2 4 1 1 9 1v1h-11l-4-4z" fill="#4CA1F9"/>
<path transform="translate(1420,632)" d="m0 0 4 5 1 5-4 1-3-10z" fill="#85E54B"/>
<path transform="translate(957,1046)" d="m0 0 2 1v7h-5l-2-5z" fill="#85E54B"/>
<path transform="translate(708,1053)" d="m0 0 4 2 4 6-1 3-4-2-3-6z" fill="#50A4F5"/>
<path transform="translate(1088,417)" d="m0 0 7 1 3 3 3 2-6 1-7-6z" fill="#85E54B"/>
<path transform="translate(492,1098)" d="m0 0h1v11l-4 8-2 1 1-6 3-4z" fill="#53A7F2"/>
<path transform="translate(1516,1056)" d="m0 0 13 1-4 3h-6l-3-3z" fill="#5BAEEA"/>
<path transform="translate(963,1110)" d="m0 0h7l-1 3h-2v3l-3 1-1-1z" fill="#4BA0FA"/>
<path transform="translate(1211,1059)" d="m0 0 4 1 5 6-11-2z" fill="#4FA4F5"/>
<path transform="translate(529,1048)" d="m0 0 5 5 4 9v2h-2l-7-14z" fill="#56AAEE"/>
<path transform="translate(1414,1040)" d="m0 0 1 3-6 13-1-4 4-11z" fill="#73B743"/>
<path transform="translate(1416,628)" d="m0 0 5 3-1 2h-2l2 4-1 4-3-7-1-5z" fill="#8BD75F"/>
<path transform="translate(486,1117)" d="m0 0 1 3-8 6-4 1 2-4 6-3z" fill="#4FA4F5"/>
<path transform="translate(958,1077)" d="m0 0h9l-1 4-6 1z" fill="#4FA4F5"/>
<path transform="translate(1244,780)" d="m0 0 3 1v3h-9l-5-1v-1l10-1z" fill="#85E54B"/>
<path transform="translate(830,601)" d="m0 0h1v9l3 1v2h2l-1 3-4-1-1-3z" fill="#79CD42"/>
<path transform="translate(1131,1096)" d="m0 0 4 4 3 7h-3l-4-7z" fill="#51A5F4"/>
<path transform="translate(388,1057)" d="m0 0 2 2 4 13v2h-2l-4-11z" fill="#5BAEEA"/>
<path transform="translate(1100,1063)" d="m0 0 4 1v8h-8l4-1 1-4z" fill="#5BAEEA"/>
<path transform="translate(835,504)" d="m0 0 3 2v10l-2-1-1-3z" fill="#66A533"/>
<path transform="translate(1432,795)" d="m0 0 6 2v2l3 1-2 1-7-1z" fill="#85E54B"/>
<path transform="translate(300,1046)" d="m0 0 8 1 1 2-5 1-2 2-2-3z" fill="#4EA2F7"/>
</svg>
